<?xml version="1.0" standalone="no"?>
<!DOCTYPE svg PUBLIC "-//W3C//DTD SVG 20010904//EN"
 "http://www.w3.org/TR/2001/REC-SVG-20010904/DTD/svg10.dtd">
<svg version="1.0" xmlns="http://www.w3.org/2000/svg"
 width="96.000000pt" height="96.000000pt" viewBox="0 0 96.000000 96.000000"
 preserveAspectRatio="xMidYMid meet">

<g transform="translate(0.000000,96.000000) scale(0.100000,-0.100000)"
fill="#000000" stroke="none">
<path d="M160 840 l0 -40 81 0 80 0 -80 -91 c-61 -69 -81 -98 -81 -120 l0 -29
140 0 140 0 0 40 0 40 -81 0 -80 0 80 91 c61 69 81 98 81 120 l0 29 -140 0
-140 0 0 -40z"/>
<path d="M640 560 l0 -319 -55 -3 -54 -3 74 -76 75 -76 75 76 74 76 -54 3 -55
3 0 319 0 320 -40 0 -40 0 0 -320z"/>
<path d="M270 437 c0 -2 -25 -74 -55 -160 l-55 -157 41 0 c32 0 42 4 46 20 4
16 14 20 53 20 39 0 49 -4 53 -20 4 -16 14 -20 46 -20 l41 0 -55 157 c-30 86
-55 158 -55 160 0 2 -13 3 -30 3 -16 0 -30 -1 -30 -3z m49 -184 c1 -7 -8 -13
-19 -13 -23 0 -23 0 -9 37 10 26 12 27 19 8 5 -11 9 -26 9 -32z"/>
</g>
</svg>
